Director: Fritz Lang  (Silent with an orchestral score)

There can be no understanding between the hands and the brain unless the heart acts as mediator. 
It is the future, and humans are divided into two groups: the thinkers, who make plans (but don't know how anything works), and the workers, who achieve goals (but don't have the vision). Completely separate, neither group is complete, but together they make a whole. One man from the "thinkers" dares visit the underground where the workers toil, and is astonished by what he sees...  Written by Murray Chapman {muzzle@cs.uq.oz.au} 

File Confirmation: 
Complete name                    : C:Documents and SettingsOwnerDesktopconvMETROPOLIS_DVDrip_big_dad_e.mp4
Format                           : MPEG-4
Format profile                   : Base Media
Codec ID                         : isom
File size                        : 786 MiB
Duration                         : 1h 58mn
Overall bit rate                 : 927 Kbps
Movie name                       : METROPOLIS_DVDrip_big_dad_e
Encoded date                     : UTC 2009-08-04 20:57:40
Tagged date                      : UTC 2009-08-04 20:57:40
Comment                          : QuickTime 6.0 or greater

Video
ID                               : 1
Format                           : MPEG-4 Visual
Format profile                   : Simple@L3
Format settings, BVOP            : No
Format settings, QPel            : No
Format settings, GMC             : No warppoints
Format settings, Matrix          : Default (H.263)
Codec ID                         : 20
Duration                         : 1h 58mn
Bit rate mode                    : Constant
Bit rate                         : 810 Kbps
Nominal bit rate                 : 768 Kbps
Width                            : 320 pixels
Height                           : 240 pixels
Display aspect ratio             : 4:3
Frame rate mode                  : Constant
Frame rate                       : 29.970 fps
Resolution                       : 24 bits
Colorimetry                      : 4:2:0
Scan type                        : Progressive
Bits/(Pixel*Frame)               : 0.352
Stream size                      : 687 MiB (87%)
Writing library                  : XviD 1.1.0 (UTC 2005-11-22)
Encoded date                     : UTC 2009-08-04 20:57:40
Tagged date                      : UTC 2009-08-04 20:57:40

Audio
ID                               : 2
Format                           : AAC
Format/Info                      : Advanced Audio Codec
Format version                   : Version 4
Format profile                   : LC
Format settings, SBR             : No
Codec ID                         : 40
Duration                         : 1h 58mn
Bit rate mode                    : Constant
Bit rate                         : 112 Kbps
Channel(s)                       : 2 channels
Channel positions                : L R
Sampling rate                    : 48.0 KHz
Resolution                       : 16 bits
Stream size                      : 95.0 MiB (12%)
Encoded date                     : UTC 2009-08-04 20:57:40
Tagged date                      : UTC 2009-08-04 20:57:40

File Scan:
Malwarebytes' Anti-Malware 1.40
Database version: 2551
Windows 5.1.2600 Service Pack 3

8/6/2009 3:25:36 AM
mbam-log-2009-08-06 (03-25-36).txt

Scan type: Quick Scan
Objects scanned: 1
Time elapsed: 11 second(s)

Memory Processes Infected: 0
Memory Modules Infected: 0
Registry Keys Infected: 0
Registry Values Infected: 0
Registry Data Items Infected: 0
Folders Infected: 0
Files Infected: 0

Memory Processes Infected:
(No malicious items detected)

Memory Modules Infected:
(No malicious items detected)

Registry Keys Infected:
(No malicious items detected)

Registry Values Infected:
(No malicious items detected)

Registry Data Items Infected:
(No malicious items detected)

Folders Infected:
(No malicious items detected)

Files Infected:
(No malicious items detected)

        When using TPB please read these important notes: 
    

01- Anti-malware apps may warn about keygens, patches, cracks, etc., because of 
    their capabilities, (generating codes, etc.). Sometimes they're added to 
    the virus/spyware database and will be detected as malware. If you don't trust
    the keygens, patches, cracks, etc., don't use them. 
    
02- Before running .exe-files, keygens, patches, cracks, etc., always check first 
    if they can be unpacked. Often some third party added a virus to the 
    original file, repacked it and uploaded it again.

03- Letting anti-malware apps send scan results to their companies can cause
    keygens, patches, cracks, etc., to be added to their virus-database.

04- Firewalls which are set to automatically determine connections will allow 
    apps & MALWARE!. Avoid this by manually configuring your firewall.

05- Usually (new) torrents with many downloads and seeders in a brief period
    suspicious! Torrents with the Skull & Crossbones icon are trusted.

06- Some people use multiple accounts and post fake comments 
    and/or files trying to spread confusion. They seldom seriously
    comment or have any torrents, or just a few to look passable.

07- Clicking on unknown links can cause malware to be installed on your machine.
  
08- In general often there are more fake and negative comments than reliable and
    positive comments.

09- In some countries uploading/downloading copyright protected material is 
    forbidden, but showing some appreciation to reliable up-loaders is not.

10- Posting fake and negative comments or fake/infected uploads on TPB can result
    in getting banned from TPB!
 

For reporting bad or suspicious torrents: 
http://forum.suprbay.org/forumdisplay.php?fid=29

For more of my torrents:
https://thepiratebay.org/user/big_dad_e/  (Secured)

All torrents scanned with:
Norton Anti-virus
Malwarebytes' Anti-malware

ALWAYS SEED!



Quicktime for iPod